<svg width="194" height="82" viewBox="0 0 194 82" fill="none" xmlns="http://www.w3.org/2000/svg">
<path d="M0.545224 2.36698C0.293425 1.57775 0.729101 0.733826 1.51833 0.482027C2.30757 0.230228 3.15149 0.665904 3.40329 1.45514L0.545224 2.36698ZM46.7238 53.8094L47.4206 52.481L46.7238 53.8094ZM118.604 32.5425L117.105 32.6048L118.604 32.5425ZM74.5713 24.3659L73.1058 24.6857L74.5713 24.3659ZM192.039 63.1606C192.855 63.3043 193.4 64.0822 193.256 64.8981L190.915 78.1934C190.771 79.0093 189.993 79.5542 189.177 79.4105C188.361 79.2668 187.817 78.4889 187.96 77.673L190.042 65.8549L178.224 63.7735C177.408 63.6298 176.863 62.8519 177.007 62.036C177.15 61.2202 177.928 60.6752 178.744 60.819L192.039 63.1606ZM3.40329 1.45514C8.58061 17.6828 24.8434 40.6378 47.4206 52.481L46.027 55.1377C22.6964 42.8992 5.94283 19.2851 0.545224 2.36698L3.40329 1.45514ZM47.4206 52.481C61.5327 59.8838 79.5327 63.421 93.7056 60.7727C100.774 59.4518 106.782 56.6154 110.927 52.0759C115.048 47.5634 117.463 41.2232 117.105 32.6048L120.102 32.4802C120.488 41.7645 117.876 48.9154 113.142 54.099C108.433 59.2555 101.758 62.32 94.2567 63.7216C79.291 66.5181 60.6073 62.786 46.027 55.1377L47.4206 52.481ZM117.105 32.6048C116.458 17.0282 104.575 8.24941 93.5183 6.78802C87.9828 6.0564 82.8811 7.19338 79.5736 9.99453C76.3529 12.7221 74.557 17.2649 76.0368 24.0461L73.1058 24.6857C71.4389 17.0471 73.4029 11.2892 77.6348 7.70522C81.7797 4.19478 87.8231 3.0092 93.9114 3.81389C106.102 5.42513 119.382 15.1545 120.102 32.4802L117.105 32.6048ZM76.0368 24.0461C79.1285 38.2145 93.1575 58.4292 113.851 69.8967C134.405 81.2866 161.49 84.0241 190.919 63.4093L192.64 65.8664C162.208 87.1835 133.885 84.4282 112.397 72.5208C91.0496 60.691 76.4047 39.8038 73.1058 24.6857L76.0368 24.0461Z" fill="#F95555"/>
</svg>
