<svg width="428" height="472" viewBox="0 0 428 472" fill="none" xmlns="http://www.w3.org/2000/svg">
<g filter="url(#filter0_d_2_1027)">
<mask id="path-1-inside-1_2_1027" fill="white">
<path fill-rule="evenodd" clip-rule="evenodd" d="M214 191.143C269.229 191.143 314 146.371 314 91.1426C314 64.1272 303.287 39.6139 285.878 21.6189C344.994 14.3153 398 60.4592 398 120.886L398 401.142C398 417.711 384.569 431.142 368 431.142L60 431.142C43.4315 431.142 30 417.711 30 401.142L30 151.321C30 102.968 64.5959 61.5417 112.174 52.9224L122.349 51.0793C116.979 63.3452 114 76.896 114 91.1426C114 146.371 158.772 191.143 214 191.143Z"/>
</mask>
<path fill-rule="evenodd" clip-rule="evenodd" d="M214 191.143C269.229 191.143 314 146.371 314 91.1426C314 64.1272 303.287 39.6139 285.878 21.6189C344.994 14.3153 398 60.4592 398 120.886L398 401.142C398 417.711 384.569 431.142 368 431.142L60 431.142C43.4315 431.142 30 417.711 30 401.142L30 151.321C30 102.968 64.5959 61.5417 112.174 52.9224L122.349 51.0793C116.979 63.3452 114 76.896 114 91.1426C114 146.371 158.772 191.143 214 191.143Z" fill="white"/>
<path d="M285.878 21.6189L285.756 20.6265L283.765 20.8725L285.16 22.3143L285.878 21.6189ZM398 120.886H399H398ZM398 401.142H397H398ZM368 431.142V432.142V431.142ZM60 431.142V430.142V431.142ZM30 401.142H29H30ZM30 151.321H29H30ZM112.174 52.9224L111.996 51.9385L112.174 52.9224ZM122.349 51.0793L123.265 51.4803L124.017 49.7607L122.17 50.0953L122.349 51.0793ZM313 91.1426C313 145.819 268.676 190.143 214 190.143V192.143C269.781 192.143 315 146.923 315 91.1426H313ZM285.16 22.3143C302.395 40.1302 313 64.397 313 91.1426H315C315 63.8575 304.179 39.0976 286.597 20.9236L285.16 22.3143ZM399 120.886C399 59.8544 345.464 13.2496 285.756 20.6265L286.001 22.6114C344.524 15.3809 397 61.0641 397 120.886H399ZM399 401.142L399 120.886H397L397 401.142H399ZM368 432.142C385.121 432.142 399 418.263 399 401.142H397C397 417.159 384.016 430.142 368 430.142V432.142ZM60 432.142L368 432.142V430.142L60 430.142V432.142ZM29 401.142C29 418.263 42.8792 432.142 60 432.142V430.142C43.9837 430.142 31 417.159 31 401.142H29ZM29 151.321L29 401.142H31L31 151.321H29ZM111.996 51.9385C63.9419 60.6439 29 102.485 29 151.321H31C31 103.452 65.25 62.4395 112.352 53.9064L111.996 51.9385ZM122.17 50.0953L111.996 51.9385L112.352 53.9064L122.527 52.0632L122.17 50.0953ZM115 91.1426C115 77.0366 117.95 63.6222 123.265 51.4803L121.433 50.6782C116.009 63.0682 113 76.7554 113 91.1426H115ZM214 190.143C159.324 190.143 115 145.819 115 91.1426H113C113 146.923 158.219 192.143 214 192.143V190.143Z" fill="#2B2B2B" fill-opacity="0.05" mask="url(#path-1-inside-1_2_1027)"/>
</g>
<defs>
<filter id="filter0_d_2_1027" x="0" y="0.857422" width="428" height="470.285" filterUnits="userSpaceOnUse" color-interpolation-filters="sRGB">
<feFlood flood-opacity="0" result="BackgroundImageFix"/>
<feColorMatrix in="SourceAlpha" type="matrix" values="0 0 0 0 0 0 0 0 0 0 0 0 0 0 0 0 0 0 127 0" result="hardAlpha"/>
<feOffset dy="10"/>
<feGaussianBlur stdDeviation="15"/>
<feComposite in2="hardAlpha" operator="out"/>
<feColorMatrix type="matrix" values="0 0 0 0 0.168627 0 0 0 0 0.168627 0 0 0 0 0.168627 0 0 0 0.2 0"/>
<feBlend mode="normal" in2="BackgroundImageFix" result="effect1_dropShadow_2_1027"/>
<feBlend mode="normal" in="SourceGraphic" in2="effect1_dropShadow_2_1027" result="shape"/>
</filter>
</defs>
</svg>
