<svg width="368" height="375" viewBox="0 0 368 375" fill="none" xmlns="http://www.w3.org/2000/svg">
<mask id="path-1-inside-1_2_861" fill="white">
<path fill-rule="evenodd" clip-rule="evenodd" d="M184 170.285C239.228 170.285 284 125.514 284 70.2852C284 43.2698 273.287 18.7565 255.878 0.761528C314.994 -6.54215 368 39.6018 368 100.029L368 274.285C368 329.514 323.228 374.285 268 374.285L100 374.285C44.7715 374.285 -9.83344e-06 329.513 0 274.285L2.56075e-05 130.463C3.42167e-05 82.1107 34.5959 40.6843 82.1742 32.065L92.3486 30.2218C86.9792 42.4878 84 56.0386 84 70.2852C84 125.514 128.772 170.285 184 170.285Z"/>
</mask>
<path fill-rule="evenodd" clip-rule="evenodd" d="M184 170.285C239.228 170.285 284 125.514 284 70.2852C284 43.2698 273.287 18.7565 255.878 0.761528C314.994 -6.54215 368 39.6018 368 100.029L368 274.285C368 329.514 323.228 374.285 268 374.285L100 374.285C44.7715 374.285 -9.83344e-06 329.513 0 274.285L2.56075e-05 130.463C3.42167e-05 82.1107 34.5959 40.6843 82.1742 32.065L92.3486 30.2218C86.9792 42.4878 84 56.0386 84 70.2852C84 125.514 128.772 170.285 184 170.285Z" fill="white"/>
<path d="M255.878 0.761528L255.756 -0.230926L253.765 0.0150527L255.16 1.45684L255.878 0.761528ZM368 100.029H369H368ZM368 274.285H367H368ZM268 374.285V375.285V374.285ZM100 374.285V375.285V374.285ZM0 274.285H-1H0ZM2.56075e-05 130.463H1.00003H2.56075e-05ZM82.1742 32.065L81.9959 31.081L82.1742 32.065ZM92.3486 30.2218L93.2647 30.6228L94.0174 28.9032L92.1703 29.2379L92.3486 30.2218ZM283 70.2852C283 124.961 238.676 169.285 184 169.285V171.285C239.781 171.285 285 126.066 285 70.2852H283ZM255.16 1.45684C272.395 19.2728 283 43.5396 283 70.2852H285C285 43 274.179 18.2401 256.597 0.0662178L255.16 1.45684ZM369 100.029C369 38.9969 315.464 -7.60781 255.756 -0.230926L256.001 1.75398C314.524 -5.47649 367 40.2066 367 100.029H369ZM369 274.285L369 100.029H367L367 274.285H369ZM268 375.285C323.781 375.285 369 330.066 369 274.285H367C367 328.961 322.676 373.285 268 373.285V375.285ZM100 375.285L268 375.285V373.285L100 373.285V375.285ZM-1 274.285C-1.00001 330.066 44.2192 375.285 100 375.285V373.285C45.3238 373.285 0.99999 328.961 1 274.285H-1ZM-0.999974 130.463L-1 274.285H1L1.00003 130.463H-0.999974ZM81.9959 31.081C33.9419 39.7865 -0.999966 81.6272 -0.999974 130.463H1.00003C1.00003 82.5942 35.25 41.5821 82.3524 33.049L81.9959 31.081ZM92.1703 29.2379L81.9959 31.081L82.3524 33.049L92.5269 31.2058L92.1703 29.2379ZM85 70.2852C85 56.1792 87.9496 42.7647 93.2647 30.6228L91.4325 29.8208C86.0088 42.2108 83 55.898 83 70.2852H85ZM184 169.285C129.324 169.285 85 124.961 85 70.2852H83C83 126.066 128.219 171.285 184 171.285V169.285Z" fill="#2B2B2B" fill-opacity="0.05" mask="url(#path-1-inside-1_2_861)"/>
</svg>
